<svg xmlns="http://www.w3.org/2000/svg" viewBox="0 0 1813.35 69.12"><defs><style>.cls-1,.cls-7{fill:#fff;}.cls-1,.cls-4{stroke:#ededed;}.cls-1,.cls-2,.cls-3,.cls-4,.cls-5{stroke-miterlimit:10;}.cls-2{fill:#505961;stroke:#505961;}.cls-3{fill:#0e2025;stroke:#0e2025;}.cls-4{fill:#ededed;}.cls-5{fill:#ff8484;stroke:#ff8484;}.cls-6,.cls-7{font-size:30px;font-family:Roboto-Regular, Roboto;}</style></defs><title>lotus_color_2</title><g id="Layer_2" data-name="Layer 2"><g id="Layer_1-2" data-name="Layer 1"><rect class="cls-1" x="142.72" y="-139.49" width="65.66" height="350" transform="translate(210.78 -140.1) rotate(89.91)"/><rect class="cls-2" x="508.87" y="-139.95" width="65.66" height="350" transform="translate(575.87 -506.7) rotate(89.91)"/><rect class="cls-3" x="874.35" y="-140.43" width="65.66" height="350" transform="translate(940.29 -872.66) rotate(89.91)"/><rect class="cls-4" x="1240.02" y="-140.67" width="65.66" height="350" transform="translate(1305.14 -1238.57) rotate(89.91)"/><rect class="cls-5" x="1604.97" y="-141.39" width="65.66" height="350" transform="translate(1668.79 -1604.24) rotate(89.91)"/><text class="cls-6" transform="matrix(1, 0, 0, 1, 113.71, 46.37)">#FFFFFF</text><text class="cls-7" transform="matrix(1, 0, 0, 1, 486.72, 46.18)">#505961</text><text class="cls-7" transform="matrix(1, 0, 0, 1, 846.72, 45.97)">#0E2025</text><text class="cls-7" transform="matrix(1, 0, 0, 1, 1581.72, 45.55)">#FF8484</text><text class="cls-6" transform="matrix(1, 0, 0, 1, 1204.72, 45.74)">#EDEDED</text></g></g></svg>